<?xml version="1.0" encoding="UTF-8" standalone="no"?>
<!DOCTYPE svg PUBLIC "-//W3C//DTD SVG 1.1//EN" "http://www.w3.org/Graphics/SVG/1.1/DTD/svg11.dtd">
<svg xmlns="http://www.w3.org/2000/svg" xmlns:xlink="http://www.w3.org/1999/xlink" version="1.1" width="3700pt" height="700pt" viewBox="0 0 3700 700">
<g enable-background="new">
<g id="Layer-1" data-name="Layer">
<clipPath id="cp0">
<path transform="matrix(1,0,0,-1,0,700)" d="M 0 700 L 3700 700 L 3700 0 L 0 0 Z "/>
</clipPath>
<g clip-path="url(#cp0)">
<path transform="matrix(1,0,0,-1,2606.12,636.4194)" d="M 0 0 C 5.031 -.915 12.35 -1.143 20.126 -1.143 C 62.666 -1.143 85.766 22.643 85.766 64.267 C 85.994 100.632 65.41 123.731 23.328 123.731 C 13.037 123.731 5.261 122.816 0 121.673 Z M -19.897 136.311 C -7.775 138.14 6.633 139.512 22.414 139.512 C 51.002 139.512 71.357 132.88 84.851 120.301 C 98.572 107.722 106.578 89.883 106.578 64.953 C 106.578 39.795 98.802 19.212 84.394 5.032 C 69.984 -9.376 46.199 -17.153 16.238 -17.153 C 2.059 -17.153 -9.834 -16.466 -19.897 -15.323 Z " fill="#86427a"/>
<path transform="matrix(1,0,0,-1,0,700)" d="M 2737.851 158.495 L 2757.978 158.495 L 2757.978 47.800996 L 2737.851 47.800996 Z M 2760.265 189.599 C 2760.493 182.738 2755.462 177.249 2747.456 177.249 C 2740.367 177.249 2735.335 182.738 2735.335 189.599 C 2735.335 196.689 2740.595 202.178 2747.914 202.178 C 2755.462 202.178 2760.265 196.689 2760.265 189.599 " fill="#86427a"/>
<path transform="matrix(1,0,0,-1,2865.9249,585.1885)" d="M 0 0 C 0 3.43 -.229 6.404 -1.143 9.148 C -4.802 20.812 -14.637 30.418 -29.273 30.418 C -48.486 30.418 -62.208 14.18 -62.208 -11.436 C -62.208 -33.163 -51.229 -51.231 -29.503 -51.231 C -17.152 -51.231 -5.945 -43.455 -1.6 -30.646 C -.456 -27.216 0 -23.328 0 -19.897 Z M 20.813 43.683 C 20.355 35.678 19.898 26.759 19.898 13.265 L 19.898 -51.002 C 19.898 -76.388 14.867 -91.94 4.117 -101.546 C -6.631 -111.609 -22.184 -114.812 -36.135 -114.812 C -49.4 -114.812 -64.037 -111.609 -72.957 -105.663 L -67.926 -90.34 C -60.607 -94.914 -49.172 -99.031 -35.449 -99.031 C -14.865 -99.031 .229 -88.281 .229 -60.379 L .229 -48.029 L -.229 -48.029 C -6.403 -58.32 -18.297 -66.554 -35.449 -66.554 C -62.895 -66.554 -82.563 -43.226 -82.563 -12.579 C -82.563 24.929 -58.092 46.199 -32.705 46.199 C -13.492 46.199 -2.973 36.136 1.83 26.988 L 2.287 26.988 L 3.202 43.683 Z " fill="#86427a"/>
<path transform="matrix(1,0,0,-1,0,700)" d="M 2917.841 158.495 L 2937.966 158.495 L 2937.966 47.800996 L 2917.841 47.800996 Z M 2940.254 189.599 C 2940.481 182.738 2935.45 177.249 2927.445 177.249 C 2920.356 177.249 2915.325 182.738 2915.325 189.599 C 2915.325 196.689 2920.585 202.178 2927.903 202.178 C 2935.45 202.178 2940.254 196.689 2940.254 189.599 " fill="#86427a"/>
<path transform="matrix(1,0,0,-1,2995.5977,509.71479)" d="M 0 0 L 0 -31.791 L 28.817 -31.791 L 28.817 -47.114 L 0 -47.114 L 0 -106.807 C 0 -120.529 3.889 -128.305 15.095 -128.305 C 20.355 -128.305 24.243 -127.619 26.759 -126.933 L 27.674 -142.028 C 23.786 -143.628 17.61 -144.772 9.835 -144.772 C .458 -144.772 -7.089 -141.799 -11.893 -136.31 C -17.61 -130.363 -19.669 -120.529 -19.669 -107.493 L -19.669 -47.114 L -36.821 -47.114 L -36.821 -31.791 L -19.669 -31.791 L -19.669 -5.261 Z " fill="#86427a"/>
<path transform="matrix(1,0,0,-1,3105.376,595.709)" d="M 0 0 C -21.957 .458 -46.885 -3.431 -46.885 -24.929 C -46.885 -37.965 -38.194 -44.141 -27.902 -44.141 C -13.493 -44.141 -4.346 -34.992 -1.145 -25.616 C -.458 -23.557 0 -21.27 0 -19.212 Z M 2.973 -56.491 L 1.372 -42.54 L .686 -42.54 C -5.489 -51.23 -17.382 -59.007 -33.163 -59.007 C -55.576 -59.007 -67.012 -43.226 -67.012 -27.216 C -67.012 -.458 -43.227 14.18 -.458 13.951 L -.458 16.238 C -.458 25.387 -2.974 41.854 -25.615 41.854 C -35.906 41.854 -46.656 38.651 -54.433 33.62 L -59.007 46.885 C -49.858 52.832 -36.594 56.719 -22.643 56.719 C 11.207 56.719 19.439 33.62 19.439 11.435 L 19.439 -29.961 C 19.439 -39.566 19.898 -48.944 21.27 -56.491 Z " fill="#86427a"/>
<path transform="matrix(1,0,0,-1,0,700)" d="M 3157.291 210.183 L 3177.417 210.183 L 3177.417 47.800996 L 3157.291 47.800996 Z " fill="#86427a"/>
<path transform="matrix(1,0,0,-1,3213.3214,652.1997)" d="M 0 0 L 0 95.371 L -15.552 95.371 L -15.552 110.694 L 0 110.694 L 0 115.955 C 0 131.507 3.432 145.687 12.809 154.606 C 20.355 161.925 30.419 164.898 39.796 164.898 C 46.886 164.898 53.061 163.297 56.949 161.696 L 54.204 146.145 C 51.231 147.516 47.113 148.66 41.396 148.66 C 24.244 148.66 19.898 133.565 19.898 116.641 L 19.898 110.694 L 46.656 110.694 L 46.656 95.371 L 19.898 95.371 L 19.898 0 Z " fill="#86427a"/>
<path transform="matrix(1,0,0,-1,0,700)" d="M 3280.786 210.183 L 3300.911 210.183 L 3300.911 47.800996 L 3280.786 47.800996 Z " fill="#86427a"/>
<path transform="matrix(1,0,0,-1,3347.1085,597.0811)" d="M 0 0 C 0 -24.244 13.951 -42.54 33.62 -42.54 C 52.832 -42.54 67.24 -24.472 67.24 .457 C 67.24 19.211 57.863 42.997 34.078 42.997 C 10.292 42.997 0 21.041 0 0 M 87.824 1.143 C 87.824 -39.795 59.465 -57.635 32.705 -57.635 C 2.744 -57.635 -20.354 -35.679 -20.354 -.686 C -20.354 36.364 3.889 58.091 34.535 58.091 C 66.325 58.091 87.824 34.992 87.824 1.143 " fill="#86427a"/>
<path transform="matrix(1,0,0,-1,3484.5596,509.71479)" d="M 0 0 L 0 -31.791 L 28.818 -31.791 L 28.818 -47.114 L 0 -47.114 L 0 -106.807 C 0 -120.529 3.889 -128.305 15.096 -128.305 C 20.355 -128.305 24.243 -127.619 26.759 -126.933 L 27.674 -142.028 C 23.786 -143.628 17.611 -144.772 9.835 -144.772 C .458 -144.772 -7.089 -141.799 -11.893 -136.31 C -17.609 -130.363 -19.668 -120.529 -19.668 -107.493 L -19.668 -47.114 L -36.822 -47.114 L -36.822 -31.791 L -19.668 -31.791 L -19.668 -5.261 Z " fill="#86427a"/>
<path transform="matrix(1,0,0,-1,3560.2598,509.71479)" d="M 0 0 L 0 -31.791 L 28.817 -31.791 L 28.817 -47.114 L 0 -47.114 L 0 -106.807 C 0 -120.529 3.889 -128.305 15.095 -128.305 C 20.356 -128.305 24.243 -127.619 26.759 -126.933 L 27.674 -142.028 C 23.786 -143.628 17.611 -144.772 9.835 -144.772 C .458 -144.772 -7.089 -141.799 -11.893 -136.31 C -17.61 -130.363 -19.669 -120.529 -19.669 -107.493 L -19.669 -47.114 L -36.821 -47.114 L -36.821 -31.791 L -19.669 -31.791 L -19.669 -5.261 Z " fill="#86427a"/>
<path transform="matrix(1,0,0,-1,3680.5596,586.1035)" d="M 0 0 C .229 12.808 -5.26 32.706 -27.902 32.706 C -48.257 32.706 -57.177 13.951 -58.777 0 Z M -59.006 -14.408 C -58.549 -41.625 -41.167 -52.832 -21.041 -52.832 C -6.632 -52.832 2.059 -50.316 9.606 -47.114 L 13.037 -61.522 C 5.947 -64.724 -6.175 -68.384 -23.785 -68.384 C -57.863 -68.384 -78.217 -45.97 -78.217 -12.579 C -78.217 20.812 -58.549 47.114 -26.301 47.114 C 9.836 47.114 19.44 15.324 19.44 -5.031 C 19.44 -9.148 18.983 -12.35 18.754 -14.408 Z " fill="#86427a"/>
<path transform="matrix(1,0,0,-1,174.103,386.4995)" d="M 0 0 L -26.632 -61.364 L -50.393 -116.091 L -50.467 -116.015 C -65.985 -105.746 -80.586 -93.821 -93.901 -80.31 C -110.704 -63.399 -125.451 -43.925 -137.711 -22.188 C -191.281 72.842 -181.98 186.064 -123.26 269.696 C -115.565 260.255 -97.846 230.82 -89.474 211.243 C -120.42 149.577 -122.502 71.485 -86.032 6.796 C -83.838 2.868 -81.487 -.98 -79.07 -4.68 C -76.655 -8.455 -74.075 -12.147 -71.35 -15.775 L -32.172 64.61 C -31.182 66.568 -29.602 70.114 -28.389 72.082 C -27.021 74.272 -25.509 73.138 -24.532 70.499 C -24.532 70.499 -18.258 54.944 -11.682 38.81 C -4.684 21.632 2.571 3.702 0 0 " fill="#1d1f21" fill-rule="evenodd"/>
<path transform="matrix(1,0,0,-1,515.6416,139.91938)" d="M 0 0 C 65.954 -117.054 36.531 -261.7 -63.267 -344.771 C -76.027 -355.385 -89.896 -364.984 -104.926 -373.416 C -110.599 -376.598 -116.32 -379.533 -122.083 -382.253 L -130.505 -319.872 L -151.248 -166.284 L -223.897 -315.871 L -186.354 -400.97 C -184.145 -405.364 -182.926 -410.308 -183.109 -415.518 C -183.493 -432.709 -197.769 -446.339 -214.992 -445.963 C -226.491 -445.743 -236.288 -439.284 -241.521 -430.004 C -242.526 -428.228 -243.428 -426.312 -244.033 -424.307 L -383.451 -93.104 C -449.096 51.754 -458.271 63.4 -508.369 93.326 C -527.08 104.488 -503.78 98.583 -503.78 98.583 C -390.101 77.819 -342.367 -46.946 -342.367 -46.946 L -256.653 -241.413 C -220.312 -170.648 -154.115 -41.822 -138.359 -11.859 C -138.359 -11.859 -134.993 -6.597 -131.144 -5.736 C -126.251 -4.547 -122.083 -4.557 -117.222 -7.023 C -112.21 -9.583 -111.14 -20.58 -110.926 -21.59 C -110.438 -23.83 -109.949 -27.62 -109.61 -29.771 L -73.979 -272.152 C -18.334 -205.618 -6.525 -109.034 -51.65 -28.96 C -110.009 74.606 -241.476 111.371 -345.292 53.154 C -353.54 48.534 -361.32 43.395 -368.7 37.867 C -385.132 57.268 -398.848 71.007 -410.966 80.058 C -399.588 89.125 -387.382 97.351 -374.324 104.68 C -241.95 178.907 -74.418 132.056 0 0 " fill="#86427a" fill-rule="evenodd"/>
<path transform="matrix(1,0,0,-1,744.668,293.4487)" d="M 0 0 C 0 -18.3 3.489 -35.618 10.481 -51.958 C 17.464 -68.296 27.078 -82.568 39.307 -94.767 C 51.53 -106.967 65.842 -116.559 82.222 -123.52 C 98.598 -130.495 115.96 -133.979 134.304 -133.979 C 152.649 -133.979 170.01 -130.495 186.389 -123.52 C 202.771 -116.559 217.068 -106.967 229.305 -94.767 C 241.526 -82.568 251.138 -68.296 258.128 -51.958 C 265.11 -35.618 268.613 -18.3 268.613 0 C 268.613 18.301 265.11 35.62 258.128 51.959 C 251.138 68.297 241.526 82.565 229.305 94.766 C 217.068 106.963 202.771 116.551 186.389 123.526 C 170.01 130.489 152.649 133.989 134.304 133.989 C 115.96 133.989 98.598 130.489 82.222 123.526 C 65.842 116.551 51.53 106.963 39.307 94.766 C 27.078 82.565 17.464 68.297 10.481 51.959 C 3.489 35.62 0 18.301 0 0 M -45.863 0 C -45.863 24.838 -41.173 48.137 -31.773 69.935 C -22.39 91.714 -9.5 110.782 6.879 127.12 C 23.258 143.459 42.356 156.307 64.207 165.682 C 86.039 175.045 109.412 179.73 134.304 179.73 C 159.204 179.73 182.562 175.045 204.407 165.682 C 226.24 156.307 245.353 143.459 261.734 127.12 C 278.114 110.782 290.991 91.714 300.387 69.935 C 309.775 48.137 314.473 24.838 314.473 0 C 314.473 -24.831 309.775 -48.153 300.387 -69.927 C 290.991 -91.719 278.114 -110.781 261.734 -127.122 C 245.353 -143.458 226.24 -156.313 204.407 -165.673 C 182.562 -175.038 159.204 -179.729 134.304 -179.729 C 109.412 -179.729 86.039 -175.038 64.207 -165.673 C 42.356 -156.313 23.258 -143.458 6.879 -127.122 C -9.5 -110.781 -22.39 -91.719 -31.773 -69.927 C -41.173 -48.153 -45.863 -24.831 -45.863 0 " fill="#1d1f21"/>
<path transform="matrix(1,0,0,-1,1142.9942,294.1001)" d="M 0 0 C 0 -18.299 3.492 -35.62 10.482 -51.958 C 17.465 -68.296 27.078 -82.577 39.309 -94.766 C 51.532 -106.968 65.844 -116.557 82.222 -123.525 C 98.602 -130.496 115.963 -133.979 134.311 -133.979 C 152.648 -133.979 170.011 -130.496 186.393 -123.525 C 202.771 -116.557 217.072 -106.968 229.305 -94.766 C 241.524 -82.577 251.139 -68.296 258.131 -51.958 C 265.113 -35.62 268.613 -18.299 268.613 0 C 268.613 18.301 265.113 35.621 258.131 51.959 C 251.139 68.298 241.524 82.563 229.305 94.767 C 217.072 106.956 202.771 116.546 186.393 123.528 C 170.011 130.489 152.648 133.98 134.311 133.98 C 115.963 133.98 98.602 130.489 82.222 123.528 C 65.844 116.546 51.532 106.956 39.309 94.767 C 27.078 82.563 17.465 68.298 10.482 51.959 C 3.492 35.621 0 18.301 0 0 M -45.858 0 C -45.858 24.837 -41.172 48.138 -31.775 69.93 C -22.387 91.715 -9.5 110.776 6.88 127.114 C 23.258 143.453 42.362 156.307 64.205 165.675 C 86.04 175.045 109.41 179.73 134.311 179.73 C 159.202 179.73 182.562 175.045 204.405 165.675 C 226.244 156.307 245.358 143.453 261.734 127.114 C 278.112 110.776 290.992 91.715 300.385 69.93 C 309.777 48.138 314.475 24.837 314.475 0 C 314.475 -24.836 309.777 -48.152 300.385 -69.93 C 290.992 -91.727 278.112 -110.774 261.734 -127.119 C 245.358 -143.457 226.244 -156.312 204.405 -165.675 C 182.562 -175.045 159.202 -179.729 134.311 -179.729 C 109.41 -179.729 83.86 -173.083 57.652 -159.795 C 31.451 -146.509 12.226 -130.056 0 -110.453 L 0 -293.456 L -45.858 -293.456 Z " fill="#1d1f21"/>
<path transform="matrix(1,0,0,-1,1466.6348,176.45899)" d="M 0 0 L 0 45.75 L 33.412 45.75 L 33.412 176.459 L 79.275 176.459 L 79.275 45.75 L 165.099 45.75 L 165.099 0 L 79.275 0 L 79.275 -281.033 L 33.412 -281.033 L 33.412 0 Z " fill="#1d1f21"/>
<path transform="matrix(1,0,0,-1,0,700)" d="M 1671.684 569.292 L 1717.547 569.292 L 1717.547 242.509 L 1671.684 242.509 Z M 1667.755 672.55 C 1667.755 680.396 1670.374 686.932 1675.617 692.159 C 1680.855 697.393 1687.41 700 1695.272 700 C 1703.131 700 1709.682 697.393 1714.926 692.159 C 1720.166 686.932 1722.786 680.396 1722.786 672.55 C 1722.786 664.708 1720.166 658.173 1714.926 652.946 C 1709.682 647.721 1703.131 645.098 1695.272 645.098 C 1687.41 645.098 1680.855 647.721 1675.617 652.946 C 1670.374 658.173 1667.755 664.708 1667.755 672.55 " fill="#1d1f21"/>
<path transform="matrix(1,0,0,-1,1764.71,130.7085)" d="M 0 0 L 47.171 0 L 47.171 -29.412 C 57.654 -15.474 71.95 -4.247 90.083 4.247 C 108.203 12.745 127.1 16.99 146.755 16.99 C 172.517 16.99 195.778 10.783 216.526 -1.639 C 237.267 -14.054 254.411 -30.502 267.958 -50.978 C 281.059 -30.502 298.85 -14.054 321.352 -1.639 C 343.843 10.784 368.193 16.99 394.401 16.99 C 414.482 16.99 433.485 13.076 451.397 5.228 C 469.302 -2.619 484.915 -13.182 498.243 -26.468 C 511.56 -39.763 522.042 -55.457 529.687 -73.523 C 537.328 -91.617 541.156 -110.679 541.156 -130.713 L 541.812 -326.783 L 494.64 -326.783 L 493.981 -130.713 C 493.981 -116.771 491.364 -103.703 486.123 -91.501 C 480.878 -79.307 473.777 -68.625 464.829 -59.475 C 455.874 -50.323 445.39 -43.134 433.385 -37.9 C 421.362 -32.675 408.376 -30.07 394.401 -30.07 C 380.417 -30.07 367.425 -32.675 355.415 -37.9 C 343.4 -43.134 332.815 -50.323 323.645 -59.475 C 314.473 -68.625 307.267 -79.307 302.023 -91.501 C 296.784 -103.703 294.159 -116.771 294.159 -130.713 L 294.817 -326.783 L 247.646 -326.783 L 246.991 -130.713 C 246.113 -116.331 242.946 -102.935 237.49 -90.521 C 232.023 -78.106 224.817 -67.431 215.873 -58.495 C 206.913 -49.572 196.545 -42.595 184.751 -37.582 C 172.956 -32.574 160.284 -30.07 146.755 -30.07 C 133.208 -30.07 120.435 -32.902 108.431 -38.56 C 96.41 -44.227 85.825 -51.745 76.653 -61.107 C 67.479 -70.483 60.273 -81.15 55.03 -93.132 C 49.792 -105.121 47.171 -117.647 47.171 -130.713 L 47.824 -326.783 L .651 -326.783 Z " fill="#1d1f21"/>
<path transform="matrix(1,0,0,-1,2394.3028,293.4487)" d="M 0 0 C 0 -18.3 3.491 -35.618 10.485 -51.958 C 17.466 -68.296 27.078 -82.568 39.309 -94.767 C 51.531 -106.967 65.844 -116.559 82.221 -123.52 C 98.602 -130.495 115.963 -133.979 134.305 -133.979 C 152.649 -133.979 170.012 -130.495 186.389 -123.52 C 202.773 -116.559 217.072 -106.967 229.307 -94.767 C 241.526 -82.568 251.139 -68.296 258.128 -51.958 C 265.111 -35.618 268.615 -18.3 268.615 0 C 268.615 18.301 265.111 35.62 258.128 51.959 C 251.139 68.297 241.526 82.565 229.307 94.766 C 217.072 106.963 202.773 116.551 186.389 123.526 C 170.012 130.489 152.649 133.989 134.305 133.989 C 115.963 133.989 98.602 130.489 82.221 123.526 C 65.844 116.551 51.531 106.963 39.309 94.766 C 27.078 82.565 17.466 68.297 10.485 51.959 C 3.491 35.62 0 18.301 0 0 M -45.861 0 C -45.861 24.838 -41.173 48.137 -31.77 69.935 C -22.387 91.714 -9.496 110.782 6.879 127.12 C 23.258 143.461 42.359 156.307 64.211 165.683 C 86.041 175.045 109.414 179.73 134.305 179.73 C 159.205 179.73 182.562 175.045 204.409 165.683 C 226.242 156.307 245.352 143.461 261.734 127.12 C 278.114 110.782 290.991 91.714 300.389 69.935 C 309.777 48.137 314.473 24.838 314.473 0 C 314.473 -24.831 309.777 -48.153 300.389 -69.927 C 290.991 -91.719 278.114 -110.781 261.734 -127.122 C 245.352 -143.458 226.242 -156.313 204.409 -165.673 C 182.562 -175.038 159.205 -179.729 134.305 -179.729 C 109.414 -179.729 86.041 -175.038 64.211 -165.673 C 42.359 -156.313 23.258 -143.458 6.879 -127.122 C -9.496 -110.781 -22.387 -91.719 -31.77 -69.927 C -41.173 -48.153 -45.861 -24.831 -45.861 0 " fill="#1d1f21"/>
<path transform="matrix(1,0,0,-1,2738.252,176.45899)" d="M 0 0 L 0 45.75 L 33.414 45.75 L 33.414 176.459 L 79.275 176.459 L 79.275 45.75 L 165.099 45.75 L 165.099 0 L 79.275 0 L 79.275 -281.033 L 33.414 -281.033 L 33.414 0 Z " fill="#1d1f21"/>
<path transform="matrix(1,0,0,-1,0,700)" d="M 2943.299 569.292 L 2989.162 569.292 L 2989.162 242.509 L 2943.299 242.509 Z M 2939.373 672.55 C 2939.373 680.396 2941.992 686.934 2947.236 692.159 C 2952.475 697.393 2959.025 700 2966.89 700 C 2974.75 700 2981.301 697.393 2986.543 692.159 C 2991.783 686.934 2994.401 680.396 2994.401 672.55 C 2994.401 664.708 2991.783 658.173 2986.543 652.946 C 2981.301 647.721 2974.75 645.099 2966.89 645.099 C 2959.025 645.099 2952.475 647.721 2947.236 652.946 C 2941.992 658.173 2939.373 664.708 2939.373 672.55 " fill="#1d1f21"/>
<path transform="matrix(1,0,0,-1,3020.6036,130.7085)" d="M 0 0 L 50.445 0 L 167.717 -269.268 L 285.645 0 L 336.093 0 L 193.27 -326.783 L 142.822 -326.783 Z " fill="#1d1f21"/>
<path transform="matrix(1,0,0,-1,3615.4805,198.6831)" d="M 0 0 C -12.224 12.197 -26.535 21.785 -42.911 28.76 C -59.289 35.724 -76.65 39.223 -94.996 39.223 C -113.342 39.223 -130.702 35.724 -147.08 28.76 C -163.457 21.785 -177.768 12.197 -189.99 0 C -200.471 -10.452 -208.998 -22.223 -215.543 -35.29 L 24.905 -35.29 C 18.344 -22.223 10.037 -10.452 0 0 M -229.293 -94.766 C -229.293 -113.066 -225.814 -130.384 -218.816 -146.724 C -211.844 -163.062 -202.229 -177.334 -189.99 -189.533 C -177.768 -201.732 -163.457 -211.324 -147.08 -218.285 C -130.702 -225.26 -113.342 -228.745 -94.996 -228.745 C -76.65 -228.745 -59.289 -225.26 -42.911 -218.285 C -26.535 -211.324 -12.224 -201.732 0 -189.533 C 8.734 -180.82 16.158 -170.805 22.28 -159.466 L 72.719 -159.466 L 70.753 -164.693 C 61.578 -186.485 48.811 -205.547 32.433 -221.887 C 16.055 -238.224 -3.052 -251.079 -24.891 -260.438 C -46.74 -269.804 -70.105 -274.494 -94.996 -274.494 C -119.886 -274.494 -143.264 -269.804 -165.103 -260.438 C -186.939 -251.079 -206.048 -238.224 -222.426 -221.887 C -238.805 -205.547 -251.689 -186.485 -261.074 -164.693 C -270.475 -142.918 -275.162 -119.597 -275.162 -94.766 C -275.162 -69.927 -270.475 -46.628 -261.074 -24.831 C -251.689 -3.052 -238.805 16.016 -222.426 32.354 C -206.048 48.696 -186.939 61.541 -165.103 70.917 C -143.264 80.279 -119.886 84.965 -94.996 84.965 C -70.105 84.965 -46.74 80.279 -24.891 70.917 C -3.052 61.541 16.055 48.696 32.433 32.354 C 48.811 16.016 61.578 -3.052 70.753 -24.831 C 78.619 -42.705 83.213 -61.428 84.52 -81.041 L -228.647 -81.041 C -229.09 -85.834 -229.293 -90.417 -229.293 -94.766 " fill="#1d1f21"/>
</g>
</g>
</g>
</svg>
